<svg data-v-fde0c5aa="" xmlns="http://www.w3.org/2000/svg" viewBox="0 0 300 300" class="iconLeft"><!----><defs data-v-fde0c5aa=""><!----></defs><rect data-v-fde0c5aa="" fill="#00acff" x="0" y="0" width="300px" height="300px" class="logo-background-square"></rect><defs data-v-fde0c5aa=""><!----></defs><g data-v-fde0c5aa="" id="a56c3a0d-64ce-4fbb-9049-821430934d72" fill="#ffffff" transform="matrix(3.703063951221165,0,0,3.703063951221165,113.24757618256234,113.58036501559992)"><path d="M4.59 5.96C4.34 6.61 4.07 7.35 3.89 8.05L3.81 8.05C3.63 7.29 3.42 6.64 3.18 6.05L2.51 4.38C2.25 3.75 1.96 3.49 1.33 3.49C0.85 3.49 0.35 3.64-0.03 3.86L2.67 10.16L2.67 13.16C3.04 13.23 3.54 13.24 3.81 13.24C4.10 13.24 4.55 13.23 4.91 13.16L4.91 10.22L7.63 3.79L7.53 3.68C7.24 3.57 6.82 3.51 6.44 3.51C6.15 3.51 5.84 3.53 5.53 3.60ZM13.51 9.66C13.51 8.44 13.24 7.53 12.50 6.79C11.91 6.22 11.14 5.96 10.28 5.96C9.39 5.96 8.62 6.22 8.05 6.79C7.31 7.53 7.04 8.44 7.04 9.66C7.04 10.89 7.31 11.80 8.05 12.54C8.62 13.12 9.39 13.37 10.28 13.37C11.14 13.37 11.91 13.12 12.50 12.54C13.24 11.80 13.51 10.89 13.51 9.66ZM9.28 9.66C9.28 8.51 9.41 7.60 10.28 7.60C11.13 7.60 11.26 8.51 11.26 9.66C11.26 10.82 11.13 11.73 10.28 11.73C9.41 11.73 9.28 10.82 9.28 9.66ZM14.21 12.68C14.85 13.05 15.90 13.37 17.00 13.37C18.70 13.37 19.82 12.49 19.82 11.09C19.82 9.90 19.03 9.21 17.96 8.83L17.09 8.53C16.72 8.39 16.56 8.23 16.56 7.99C16.56 7.74 16.76 7.55 17.14 7.55C17.81 7.55 18.51 7.81 19.10 8.08C19.45 7.81 19.73 7.07 19.70 6.55C19.08 6.24 17.96 5.96 17.12 5.96C15.47 5.96 14.41 6.86 14.41 8.27C14.41 9.41 15.18 10.01 16.16 10.37L16.93 10.67C17.39 10.82 17.57 11.03 17.57 11.30C17.57 11.58 17.29 11.79 16.76 11.79C16.20 11.79 15.43 11.52 14.81 11.20C14.49 11.54 14.22 12.21 14.21 12.68ZM26.42 10.37C26.56 9.91 26.60 9.55 26.60 8.93C26.60 7.24 25.54 5.96 23.69 5.96C21.46 5.96 20.55 7.60 20.55 9.72C20.55 11.56 21.21 13.37 23.67 13.37C24.65 13.37 25.72 13.08 26.42 12.57C26.36 12.14 26.17 11.61 25.84 11.28C25.27 11.51 24.65 11.70 24.02 11.70C23.10 11.70 22.83 11.13 22.76 10.37ZM23.67 7.52C24.33 7.52 24.60 8.06 24.60 8.71L24.60 8.86L22.75 8.86C22.81 7.95 23.06 7.52 23.67 7.52ZM34.17 9.58C34.17 7.46 33.36 5.96 31.65 5.96C30.93 5.96 30.27 6.29 29.79 6.76C29.54 6.33 29.12 6.08 28.60 6.08L28.03 6.08L27.93 6.17L27.93 16.09L28.03 16.18L28.87 16.18C29.74 16.18 30.07 15.85 30.07 14.87L30.07 13.01C30.45 13.17 30.87 13.30 31.36 13.30C32.90 13.30 34.17 11.98 34.17 9.58ZM31.09 7.71C31.58 7.71 31.93 8.27 31.93 9.56C31.93 10.86 31.65 11.68 30.98 11.68C30.72 11.68 30.39 11.55 30.07 11.35L30.07 8.27C30.42 7.83 30.81 7.71 31.09 7.71ZM39.55 6.16L37.88 6.19L37.88 4.16L37.79 4.06L36.93 4.06C36.08 4.06 35.74 4.41 35.74 5.38L35.74 6.19L34.65 6.16C34.58 6.43 34.55 6.68 34.55 6.92C34.55 7.20 34.58 7.46 34.65 7.71L35.74 7.70L35.74 11.28C35.74 12.61 36.33 13.23 37.60 13.23C38.15 13.23 38.89 13.16 39.41 13.09C39.45 12.95 39.47 12.77 39.47 12.60C39.47 12.26 39.40 11.87 39.28 11.56L38.50 11.56C38.07 11.56 37.88 11.33 37.88 10.91L37.88 7.69L39.55 7.71C39.61 7.46 39.63 7.20 39.63 6.92C39.63 6.68 39.61 6.43 39.55 6.16Z"></path></g><defs data-v-fde0c5aa=""><!----></defs><g data-v-fde0c5aa="" id="e3a49607-b431-4977-8591-57eaba8eb4ee" stroke="none" fill="#010033" transform="matrix(0.7048794358964204,0,0,0.7048794358964204,39.99970401074732,114.75614903769718)"><path d="M67.83 64.129c.028-2.929.017-9.357-.493-15.71.045 2.677.115 5.127.206 6.409.051.735.163 4.585.287 9.301zM43.334 9.037c.087-2.058-.024-4.262 1.72-4.136.837.061 2.279.274 4.063.631 1.978.396 1.699 11.121 1.699 11.121l7.171 2.788c.236-7.761-1.704-16.773-3.64-17.325-3.244-.925-8.005-2.854-12.736-1.819-3.161.691-4.007 12.296-4.007 12.296l5.532 1.449s.058-1.712.198-5.005zM9.969 48.267c1.165.431 3.085 1.064 5.358 1.777 1.699-4.705 4.58-8.294 4.58-8.294s.665-1.743 4.006-1.041c3.341.701 3.497 2.226 3.497 2.226s-2.164 3.508-4.268 8.236c-.13.292-.301.655-.431 1.102 5.297 1.544 10.415 2.911 11.887 3.045 2.897.265 10.174.583 11.557-6.42 1.364-6.911 2.714-11.127 3.864-13.759.23-.575.437-1.051.589-1.395.313-.708 1.266-2.128 2.652-3.52v-.002c.004-.01.01-.015.018-.017 1.852-1.85 4.472-3.642 7.397-3.631.154 0 .342.019.551.051-1.721-1.914-3.682-3.544-5.77-4.349-.475-.183-17.718-6.998-22.87-6.269l-.419.06.419-.06s-11.811.293-19.621 8.097c-4.08 4.076-7.662 11.388-9.911 18.414-.029 1.783 2.246 4.023 6.915 5.749z"></path><path d="M33.018 60.553c-2.322-.426-6.635-1.608-11.232-2.967-.7 2.769-.105 7.525-.105 7.525s-.904 2.158-4.467 1.369c-3.036-.674-2.958-2.865-2.958-2.865s-.776-4.446-.092-8.359c-4.376-1.378-8.094-2.615-9.462-3.14-1.646-.63-2.833-1.508-3.688-2.489-.063.389-.119 1.96-.172 2.334-3.102 22.092 3.336 31.606 3.792 33.615.613 2.701 12.381 8.364 23.741 12.513 6.59 2.407 13.947 1.94 16.869 1.73l.214-.012c.465-8.542 1.731-30.777 2.352-44.384-.984 4.996-9.233 6.148-14.792 5.13zM67.83 64.129c-.124-4.716-.235-8.564-.287-9.303-.091-1.28-.161-3.73-.206-6.408-.455-5.656-1.913-11.727-3.16-14.882-2.096-5.312-8.183 1.351-9.902 5.546-1.78 4.344-3.465 54.419-3.629 59.383 4.25-1.107 10.338-2.696 11.084-3.867 1.581-2.476 2.438-4.873 2.833-6.914.262-1.359 3.777-2.63 3.777-2.63s-.249-10.8-.474-19.516l-.062.23c0 .002.017-.599.026-1.639z"></path><path d="M83.415 42.354s-.901-10.732-1.105-12.818c-.494-5.037-5.038-21.237-20.526-8.825l4.103 4.476s10.496-9.432 10.892 13.042c.033 1.902.159 4.559 1.303 20.549 1.266 17.679-5.648 17.777-5.648 17.777l.312 7.518s2.568-.672 5.22-1.788c3.753-1.581 7.349-8.198 7.349-17.897-.004-3.838-1.9-22.034-1.9-22.034zM29.176 12.348l3.424-.526V8.924l.659-2.37s-3.162 1.449-4.083 2.897c-.922 1.449-1.318 2.239-1.318 2.897 0 .659 1.318 0 1.318 0z"></path></g><!----></svg>