<svg data-v-fde0c5aa="" xmlns="http://www.w3.org/2000/svg" viewBox="0 0 300 300" class="iconLeft"><!----><defs data-v-fde0c5aa=""><!----></defs><rect data-v-fde0c5aa="" fill="#111F51" x="0" y="0" width="300px" height="300px" class="logo-background-square"></rect><defs data-v-fde0c5aa=""><!----></defs><g data-v-fde0c5aa="" id="450d6770-9fc2-43e5-9d8f-7c2ab2ed0a66" fill="#19CEDA" transform="matrix(4.353312547310171,0,0,4.353312547310171,119.95394124836396,114.4334382321657)"><path d="M2.73 13.47L3.46 9.31L6.06 2.94L6.08 2.87L4.51 2.87C3.37 5.84 3.19 6.27 3.11 6.62L3.01 6.62C3.01 5.73 3.00 5.22 2.94 2.87L1.37 2.87L1.36 2.94L1.83 9.11L1.06 13.47ZM9.02 12.78C9.41 12.14 9.63 11.49 10.19 8.33C10.60 5.99 10.74 4.97 10.74 4.34C10.74 3.05 10.26 2.69 9.00 2.69C7.97 2.69 7.43 2.91 7.06 3.56C6.66 4.21 6.44 4.83 5.96 7.60C5.47 10.33 5.33 11.37 5.33 12.00C5.33 13.30 5.78 13.65 7.07 13.65C8.09 13.65 8.62 13.44 9.02 12.78ZM7.98 11.47C7.88 11.72 7.71 11.82 7.39 11.82C6.99 11.82 6.93 11.65 6.93 11.23C6.93 10.86 7.03 10.21 7.43 7.91C7.85 5.47 7.97 5.11 8.12 4.75C8.25 4.49 8.39 4.40 8.71 4.40C9.10 4.40 9.17 4.52 9.17 4.94C9.17 5.29 9.09 5.91 8.69 8.13C8.23 10.72 8.13 11.09 7.98 11.47ZM15.61 6.16C15.82 5.50 16.02 4.58 16.02 3.99C16.02 3.04 15.57 2.69 14.34 2.69C12.81 2.69 12.26 3.26 11.89 5.26C11.72 6.12 11.66 6.65 11.66 7.01C11.66 7.48 11.73 7.64 11.96 7.91C12.33 8.36 13.27 8.82 13.58 9.25C13.69 9.41 13.73 9.51 13.73 9.73C13.73 9.86 13.72 10.02 13.61 10.58C13.38 11.73 13.20 11.90 12.70 11.90C12.38 11.90 12.22 11.84 12.22 11.42C12.22 10.92 12.35 10.30 12.46 9.93L11.16 9.93C10.92 10.67 10.75 11.45 10.75 12.21C10.75 13.37 11.28 13.65 12.36 13.65C13.97 13.65 14.56 12.99 14.98 10.88C15.20 9.76 15.23 9.28 15.23 8.93C15.23 8.36 15.06 8.16 14.74 7.87C14.38 7.56 13.59 7.17 13.27 6.79C13.17 6.66 13.13 6.58 13.13 6.41C13.13 6.23 13.16 5.96 13.29 5.36C13.45 4.54 13.58 4.37 14.04 4.37C14.41 4.37 14.55 4.44 14.55 4.79C14.55 5.19 14.42 5.74 14.32 6.16ZM19.40 13.47L19.73 11.63L17.70 11.63L18.17 8.89L20.17 8.89L20.47 7.22L18.47 7.22L18.93 4.62L20.97 4.62L21.28 2.87L17.70 2.87L15.83 13.47ZM22.34 13.47L22.92 10.16L23.79 10.16C25.26 10.16 25.80 9.18 26.22 6.80C26.43 5.64 26.52 4.98 26.52 4.48C26.52 3.30 26.10 2.87 25.07 2.87L22.67 2.87L20.80 13.47ZM23.23 8.46L23.90 4.61L24.47 4.61C24.72 4.61 24.88 4.68 24.88 5.15C24.88 5.42 24.84 5.82 24.68 6.64C24.43 8.02 24.22 8.46 23.79 8.46ZM28.98 13.47L30.53 4.62L31.86 4.62L32.17 2.87L27.94 2.87L27.64 4.62L28.98 4.62L27.43 13.47Z"></path></g><defs data-v-fde0c5aa=""><!----></defs><g data-v-fde0c5aa="" id="e3aff76a-155f-467d-ad67-bd370cf15852" stroke="none" fill="#19CEDA" transform="matrix(0.7207151003178941,0,0,0.7207151003178941,37.4947958069196,113.3638891735736)"><path d="M81.263 1.182h-56.99c-15.275 0-20.797 5.312-20.797 21.18v57.192c0 15.373 5.522 20.93 20.796 20.93h56.991c15.403 0 21.515-5.557 21.515-20.93V22.362c0-15.868-5.912-21.18-21.515-21.18zM61.226 29.796h6.995L45.688 71.87h-8.092M70.12 36.538l.009-6.695 22.37 17.635c-.032 2.082.032 4.482 0 6.564L70.13 71.676l.018-6.755L88.508 50.79zM17.746 50.789l18.361 14.132.018 6.755-22.37-17.634c-.032-2.082.032-4.482 0-6.564l22.37-17.635.01 6.695z"></path></g><!----></svg>